<svg xmlns="http://www.w3.org/2000/svg" version="1.1" xmlns:xlink="http://www.w3.org/1999/xlink" xmlns:svgjs="http://svgjs.dev/svgjs" width="1000" height="1000" viewBox="0 0 1000 1000"><rect width="1000" height="1000" fill="#ffffff"></rect><g transform="matrix(0.7,0,0,0.7,149.57575757575756,282.1265587044535)"><svg viewBox="0 0 396 247" data-background-color="#ffffff" preserveAspectRatio="xMidYMid meet" height="623" width="1000" xmlns="http://www.w3.org/2000/svg" xmlns:xlink="http://www.w3.org/1999/xlink"><g id="tight-bounds" transform="matrix(1,0,0,1,0.2400000000000091,-0.09999999999999432)"><svg viewBox="0 0 395.52 247.2" height="247.2" width="395.52"><g><svg></svg></g><g><svg viewBox="0 0 395.52 247.2" height="247.2" width="395.52"><g transform="matrix(1,0,0,1,39.55199999999999,91.23927272727272)"><svg viewBox="0 0 316.416 64.72145454545453" height="64.72145454545453" width="316.416"><g><svg viewBox="0 0 316.416 64.72145454545453" height="64.72145454545453" width="316.416"><g><svg viewBox="0 0 316.416 64.72145454545453" height="64.72145454545453" width="316.416"><g><svg viewBox="0 0 316.416 64.72145454545453" height="64.72145454545453" width="316.416"><g id="textblocktransform"><svg viewBox="0 0 316.416 64.72145454545453" height="64.72145454545453" width="316.416" id="textblock"><g><svg viewBox="0 0 316.416 64.72145454545453" height="64.72145454545453" width="316.416"><g transform="matrix(1,0,0,1,0,0)"><svg width="316.416" viewBox="4.449999809265137 -37.95000076293945 193.58999633789062 39.60000228881836" height="64.72145454545453" data-palette-color="#6c9ee1"><path d="M9.9 0L4.45 0 4.45-36.25 26.15-36.25 26.15-31.2 9.9-31.2 9.9-20.25 24.1-20.25 24.1-15.15 9.9-15.15 9.9 0ZM55.7 0L32.2 0 32.2-36.25 37.7-36.25 37.7-5.2 55.7-5.2 55.7 0ZM83.84-36.25L70.5-11.95 70.5 0 65 0 65-11.95Q64.64-12.5 63.62-14.35 62.59-16.2 61.22-18.73 59.84-21.25 58.27-24.1 56.7-26.95 55.32-29.48 53.95-32 52.92-33.85 51.89-35.7 51.55-36.25L51.55-36.25 57.74-36.25Q58.2-35.5 59.34-33.38 60.49-31.25 61.89-28.58 63.3-25.9 64.75-23.18 66.19-20.45 67.19-18.5L67.19-18.5 67.75-16.85Q67.94-17.25 68.09-17.68 68.25-18.1 68.39-18.5L68.39-18.5Q69.44-20.45 70.84-23.18 72.25-25.9 73.62-28.58 75-31.25 76.12-33.38 77.25-35.5 77.69-36.25L77.69-36.25 83.84-36.25ZM114.94-36.25L120.39-36.25 120.39 1.65Q119.69 0.75 117.69-1.25 115.69-3.25 113.09-5.85 110.49-8.45 107.57-11.3 104.64-14.15 102.04-16.73 99.44-19.3 97.49-21.33 95.54-23.35 94.89-24.2L94.89-24.2 93.94-25.5 94.09-23.9 94.09 0 88.59 0 88.59-37.95Q89.14-37.25 90.42-35.95 91.69-34.65 93.42-32.93 95.14-31.2 97.22-29.2 99.29-27.2 101.42-25.15 103.54-23.1 105.62-21.13 107.69-19.15 109.42-17.45 111.14-15.75 112.39-14.45 113.64-13.15 114.14-12.5L114.14-12.5 115.09-11.1 114.94-12.8 114.94-36.25ZM144.24-17.35L156.34-17.35 156.34-2.15Q154.24-0.95 151.34-0.28 148.44 0.4 145.44 0.4L145.44 0.4Q141.14 0.4 137.72-0.95 134.29-2.3 131.84-4.67 129.39-7.05 128.09-10.3 126.79-13.55 126.79-17.4L126.79-17.4Q126.79-21.65 128.32-25.18 129.84-28.7 132.47-31.25 135.09-33.8 138.52-35.23 141.94-36.65 145.79-36.65L145.79-36.65Q148.39-36.65 151.24-35.98 154.09-35.3 156.19-34.05L156.19-34.05 153.54-29.6Q152.79-30.05 151.82-30.4 150.84-30.75 149.79-31 148.74-31.25 147.69-31.38 146.64-31.5 145.69-31.5L145.69-31.5Q143.04-31.5 140.59-30.45 138.14-29.4 136.29-27.55 134.44-25.7 133.34-23.2 132.24-20.7 132.24-17.8L132.24-17.8Q132.24-15.15 133.22-12.8 134.19-10.45 135.94-8.65 137.69-6.85 140.14-5.8 142.59-4.75 145.54-4.75L145.54-4.75Q146.69-4.75 148.27-4.98 149.84-5.2 151.29-5.75L151.29-5.75 151.29-12.65 144.24-12.65 144.24-17.35ZM160.99-18.1L160.99-18.1Q160.99-21.85 162.44-25.23 163.89-28.6 166.41-31.15 168.94-33.7 172.29-35.18 175.64-36.65 179.49-36.65L179.49-36.65Q183.29-36.65 186.66-35.18 190.04-33.7 192.56-31.15 195.09-28.6 196.56-25.23 198.04-21.85 198.04-18.1L198.04-18.1Q198.04-14.25 196.56-10.9 195.09-7.55 192.56-5.03 190.04-2.5 186.66-1.05 183.29 0.4 179.49 0.4L179.49 0.4Q175.64 0.4 172.29-1.05 168.94-2.5 166.41-5.03 163.89-7.55 162.44-10.9 160.99-14.25 160.99-18.1ZM166.44-18.05L166.44-18.05Q166.44-15.3 167.46-12.88 168.49-10.45 170.29-8.65 172.09-6.85 174.49-5.8 176.89-4.75 179.59-4.75L179.59-4.75Q182.29-4.75 184.66-5.8 187.04-6.85 188.81-8.65 190.59-10.45 191.61-12.88 192.64-15.3 192.64-18.1L192.64-18.1Q192.64-20.85 191.61-23.28 190.59-25.7 188.79-27.5 186.99-29.3 184.61-30.35 182.24-31.4 179.54-31.4L179.54-31.4Q176.84-31.4 174.44-30.35 172.04-29.3 170.26-27.5 168.49-25.7 167.46-23.25 166.44-20.8 166.44-18.05Z" opacity="1" transform="matrix(1,0,0,1,0,0)" fill="#6c9ee1" class="undefined-text-0" data-fill-palette-color="primary" id="text-0"></path></svg></g></svg></g></svg></g></svg></g><g></g></svg></g></svg></g></svg></g><g mask="url(#fd891c97-56cf-4e5d-baa0-aa61b9cb0856)"><g transform="matrix(2.724414189804173, 0, 0, 2.724414189804173, 75.16188109958021, 1)"><svg xmlns="http://www.w3.org/2000/svg" xmlns:xlink="http://www.w3.org/1999/xlink" version="1.1" x="0" y="0" viewBox="4.999551296234131 4.999000549316406 89.99961853027344 90.0009994506836" enable-background="new 0 0 100 100" xml:space="preserve" height="90.0009994506836" width="89.99961853027344" class="icon-none" data-fill-palette-color="accent" id="none"><g fill="#4a596d" data-fill-palette-color="accent"><path d="M93.919 18.204c2.277-5.531 0.529-8.918-1.339-10.786-1.606-1.605-3.584-2.419-5.88-2.419-5.957 0-12.464 5.617-15.811 8.967l-5.988 5.987L19.847 10.3c-0.48-0.102-0.981 0.046-1.329 0.395l-6.548 6.545c-0.341 0.343-0.491 0.832-0.396 1.308 0.094 0.477 0.418 0.872 0.865 1.059l37.566 15.653c-7.848 8.443-17.228 19.251-21.731 27.134l-14.992-2.998c-0.475-0.095-0.967 0.054-1.312 0.396l-6.545 6.548c-0.355 0.354-0.502 0.87-0.387 1.359s0.477 0.885 0.954 1.043l18.95 6.316 6.316 18.95c0.158 0.478 0.553 0.839 1.043 0.954C32.412 94.988 32.524 95 32.636 95c0.381 0 0.751-0.148 1.025-0.425l6.547-6.546c0.343-0.343 0.492-0.835 0.396-1.311l-2.998-14.993c7.876-4.499 18.686-13.883 27.133-21.735l15.654 37.57c0.187 0.447 0.582 0.771 1.059 0.865 0.094 0.019 0.188 0.028 0.282 0.028 0.38 0 0.75-0.15 1.025-0.425l6.545-6.548c0.35-0.348 0.497-0.848 0.395-1.329l-9.655-45.054 5.989-5.989C88.666 26.479 92.171 22.451 93.919 18.204zM15.556 17.76l4.456-4.455 42.443 9.095-1.387 1.387c-1.889 1.886-5.146 5.186-8.943 9.211L15.556 17.76zM86.694 79.987l-4.455 4.456L67.002 47.872c4.024-3.797 7.324-7.053 9.211-8.941l1.387-1.387L86.694 79.987zM74.161 36.877C68.11 42.93 47.431 63.179 35.289 69.69c-0.563 0.303-0.863 0.938-0.737 1.563l3.055 15.271-4.337 4.337L27.467 73.45c-0.145-0.432-0.485-0.772-0.918-0.917L9.138 66.73l4.337-4.338 15.271 3.055c0.634 0.127 1.261-0.175 1.563-0.737 6.522-12.159 26.763-32.827 32.813-38.872l9.819-9.819C78.099 10.86 83.113 7.902 86.7 7.902c1.52 0 2.771 0.513 3.827 1.568 1.834 1.834 2.064 4.329 0.707 7.628-1.238 3.009-3.747 6.452-7.254 9.959L74.161 36.877z" fill="#4a596d" data-fill-palette-color="accent"></path></g></svg></g></g></svg></g><defs><mask id="8c7ce326-269f-40b8-abc8-9fdbd5a73f96"><rect width="640" height="400" fill="white"></rect><rect width="348.05760000000004" height="95.27981875199998" fill="black" y="75.960090624" x="23.731199999999973" id="transform-me"></rect></mask><mask id="2a938060-db50-4b3c-94ff-8ff0474dcac2"><rect width="640" height="400" fill="white"></rect><rect width="348.05760000000004" height="95.27981875199998" fill="black" y="75.960090624" x="23.731199999999973" id="transform-me"></rect></mask><mask id="9ab29ca3-7959-47a7-992f-b030897bfff2"><rect width="640" height="400" fill="white"></rect><rect width="232.0384" height="63.51987916799999" fill="black" y="91.840060416" x="81.7408" id="transform-me"></rect></mask><mask id="52e9f101-b5e5-432a-8bf3-2087714eb493"><rect width="640" height="400" fill="white"></rect><rect width="174.02880000000002" height="47.63990937599999" fill="black" y="99.780045312" x="110.74559999999998" id="transform-me"></rect></mask><mask id="6b4ad73a-ccca-42a3-87fe-40eb85741408"><rect width="640" height="400" fill="white"></rect><rect width="435.072" height="119.09977343999998" fill="black" y="64.05011328" x="-19.77600000000001" id="transform-me"></rect></mask><mask id="a952a837-7c72-4801-848b-2390d9064e30"><rect width="640" height="400" fill="white"></rect><rect width="435.072" height="119.09977343999998" fill="black" y="64.05011328" x="-19.77600000000001" id="transform-me"></rect></mask><mask id="f774fe16-1ae8-4758-be8e-faf00001c89b"><rect width="640" height="400" fill="white"></rect><rect width="348.05760000000004" height="95.27981875199998" fill="black" y="75.960090624" x="23.731199999999973" id="transform-me"></rect></mask><mask id="4a631e4f-7673-47fc-ab1a-41e8af73708f"><rect width="640" height="400" fill="white"></rect><rect width="232.0384" height="63.51987916799999" fill="black" y="91.840060416" x="81.7408" id="transform-me"></rect></mask><mask id="e7c46e7e-ccf8-4529-b350-775ec0f452f3"><rect width="640" height="400" fill="white"></rect><rect width="348.05760000000004" height="95.27981875199998" fill="black" y="75.960090624" x="23.731199999999973" id="transform-me"></rect></mask><mask id="405d3080-144f-4837-b338-bd0f09712faf"><rect width="640" height="400" fill="white"></rect><rect width="348.05760000000004" height="95.27981875199998" fill="black" y="75.960090624" x="23.731199999999973" id="transform-me"></rect></mask><mask id="285da3c2-2795-47a0-b213-9d8ce59e1394"><rect width="640" height="400" fill="white"></rect><rect width="348.05760000000004" height="95.27981875199998" fill="black" y="75.960090624" x="23.731199999999973" id="transform-me"></rect></mask><mask id="49e64640-7533-4c27-871a-f147f3ace648"><rect width="640" height="400" fill="white"></rect><rect width="348.05760000000004" height="95.27981875199998" fill="black" y="75.960090624" x="23.731199999999973" id="transform-me"></rect></mask><mask id="8c002d8e-fdd5-44c8-b1ec-ff612e94f2eb"><rect width="640" height="400" fill="white"></rect><rect width="348.05760000000004" height="95.27981875199998" fill="black" y="75.960090624" x="23.731199999999973" id="transform-me"></rect></mask><mask id="565d10a7-bde6-4b05-9c63-78c5b9bb53d0"><rect width="640" height="400" fill="white"></rect><rect width="348.05760000000004" height="95.27981875199998" fill="black" y="75.960090624" x="23.731199999999973" id="transform-me"></rect></mask><mask id="d101d589-6be5-460b-afbf-30f11edc1bc7"><rect width="640" height="400" fill="white"></rect><rect width="348.05760000000004" height="95.27981875199998" fill="black" y="75.960090624" x="23.731199999999973" id="transform-me"></rect></mask><mask id="cc133fe3-28e0-4f9d-8f7c-0f0fb9084f44"><rect width="640" height="400" fill="white"></rect><rect width="348.05760000000004" height="95.27981875199998" fill="black" y="75.960090624" x="23.731199999999973" id="transform-me"></rect></mask><mask id="da719ddd-bc72-48d3-b736-78db2a17e711"><rect width="640" height="400" fill="white"></rect><rect width="348.05760000000004" height="95.27981875199998" fill="black" y="75.960090624" x="23.731199999999973" id="transform-me"></rect></mask><mask id="fd891c97-56cf-4e5d-baa0-aa61b9cb0856"><rect width="640" height="400" fill="white"></rect><rect width="348.05760000000004" height="95.27981875199998" fill="black" y="75.960090624" x="23.731199999999973" id="transform-me"></rect></mask></defs></svg><rect width="395.52" height="247.2" fill="none" stroke="none" visibility="hidden"></rect></g></svg></g></svg>